<mxfile host="app.diagrams.net" modified="2024-03-31T15:36:15.687Z" agent="Mozilla/5.0 (Windows NT 10.0; Win64; x64) AppleWebKit/537.36 (KHTML, like Gecko) Chrome/123.0.0.0 Safari/537.36" etag="Y9U3kSKGk1fw3UT6KRvX" version="24.2.1" type="github">
  <diagram name="第 1 页" id="3GR5ZFJ99SGeGk10Pyea">
    <mxGraphModel dx="1008" dy="1795" grid="1" gridSize="9" guides="1" tooltips="1" connect="1" arrows="1" fold="1" page="1" pageScale="1" pageWidth="827" pageHeight="1169" background="#FFFFFF" math="0" shadow="0">
      <root>
        <mxCell id="0" />
        <mxCell id="1" parent="0" />
        <mxCell id="2ChEE_B9adLZoxHIVyTo-17" value="malloc(-)" style="shape=delay;whiteSpace=wrap;html=1;" parent="1" vertex="1">
          <mxGeometry x="468" y="1152" width="216" height="216" as="geometry" />
        </mxCell>
        <mxCell id="2ChEE_B9adLZoxHIVyTo-14" value="malloc()" style="shape=delay;whiteSpace=wrap;html=1;" parent="1" vertex="1">
          <mxGeometry x="468" y="612" width="216" height="540" as="geometry" />
        </mxCell>
        <mxCell id="7bl8xutbdIY_RmeOV73t-33" value="" style="group" parent="1" vertex="1" connectable="0">
          <mxGeometry x="290" y="-560" width="377" height="880" as="geometry" />
        </mxCell>
        <mxCell id="7bl8xutbdIY_RmeOV73t-21" value="" style="rounded=0;whiteSpace=wrap;html=1;" parent="7bl8xutbdIY_RmeOV73t-33" vertex="1">
          <mxGeometry x="26.928571428571423" y="200.00000000000003" width="323.1428571428571" height="320" as="geometry" />
        </mxCell>
        <mxCell id="7bl8xutbdIY_RmeOV73t-31" value="pre size" style="rounded=0;whiteSpace=wrap;html=1;" parent="7bl8xutbdIY_RmeOV73t-33" vertex="1">
          <mxGeometry x="26.928571428571423" y="200.00000000000003" width="323.1428571428571" height="53.33333333333333" as="geometry" />
        </mxCell>
        <mxCell id="7bl8xutbdIY_RmeOV73t-32" value="size" style="rounded=0;whiteSpace=wrap;html=1;" parent="7bl8xutbdIY_RmeOV73t-33" vertex="1">
          <mxGeometry x="26.928571428571423" y="253.33333333333331" width="323.1428571428571" height="53.33333333333333" as="geometry" />
        </mxCell>
        <mxCell id="7bl8xutbdIY_RmeOV73t-22" value="" style="rounded=0;whiteSpace=wrap;html=1;" parent="7bl8xutbdIY_RmeOV73t-33" vertex="1">
          <mxGeometry x="26.928571428571423" y="306.6666666666667" width="323.1428571428571" height="53.33333333333333" as="geometry" />
        </mxCell>
        <mxCell id="7bl8xutbdIY_RmeOV73t-27" value="fake chunk" style="text;strokeColor=none;fillColor=none;align=left;verticalAlign=middle;spacingLeft=4;spacingRight=4;overflow=hidden;points=[[0,0.5],[1,0.5]];portConstraint=eastwest;rotatable=0;whiteSpace=wrap;html=1;" parent="7bl8xutbdIY_RmeOV73t-33" vertex="1">
          <mxGeometry x="134.6428571428571" y="160" width="107.7142857142857" height="40" as="geometry" />
        </mxCell>
        <mxCell id="7bl8xutbdIY_RmeOV73t-28" value="" style="rounded=0;whiteSpace=wrap;html=1;" parent="7bl8xutbdIY_RmeOV73t-33" vertex="1">
          <mxGeometry x="26.928571428571423" y="360.00000000000006" width="323.1428571428571" height="53.33333333333333" as="geometry" />
        </mxCell>
        <mxCell id="7bl8xutbdIY_RmeOV73t-3" value="" style="rounded=0;whiteSpace=wrap;html=1;" parent="7bl8xutbdIY_RmeOV73t-33" vertex="1">
          <mxGeometry x="26.928571428571423" y="573.3333333333334" width="323.1428571428571" height="306.6666666666667" as="geometry" />
        </mxCell>
        <mxCell id="7bl8xutbdIY_RmeOV73t-4" value="" style="group" parent="7bl8xutbdIY_RmeOV73t-33" vertex="1" connectable="0">
          <mxGeometry x="26.928571428571423" y="40" width="323.1428571428571" height="106.66666666666666" as="geometry" />
        </mxCell>
        <mxCell id="7bl8xutbdIY_RmeOV73t-1" value="fd" style="rounded=0;whiteSpace=wrap;html=1;" parent="7bl8xutbdIY_RmeOV73t-4" vertex="1">
          <mxGeometry width="161.57142857142856" height="106.66666666666666" as="geometry" />
        </mxCell>
        <mxCell id="7bl8xutbdIY_RmeOV73t-2" value="bk" style="rounded=0;whiteSpace=wrap;html=1;" parent="7bl8xutbdIY_RmeOV73t-4" vertex="1">
          <mxGeometry x="161.57142857142856" width="161.57142857142856" height="106.66666666666666" as="geometry" />
        </mxCell>
        <mxCell id="7bl8xutbdIY_RmeOV73t-5" value="unstored_bin_attack" style="text;strokeColor=none;fillColor=none;align=left;verticalAlign=middle;spacingLeft=4;spacingRight=4;overflow=hidden;points=[[0,0.5],[1,0.5]];portConstraint=eastwest;rotatable=0;whiteSpace=wrap;html=1;" parent="7bl8xutbdIY_RmeOV73t-33" vertex="1">
          <mxGeometry x="107.7142857142857" width="161.57142857142856" height="40" as="geometry" />
        </mxCell>
        <mxCell id="7bl8xutbdIY_RmeOV73t-11" style="edgeStyle=orthogonalEdgeStyle;rounded=0;orthogonalLoop=1;jettySize=auto;html=1;exitX=0;exitY=0.5;exitDx=0;exitDy=0;entryX=0;entryY=0.5;entryDx=0;entryDy=0;" parent="7bl8xutbdIY_RmeOV73t-33" source="7bl8xutbdIY_RmeOV73t-6" edge="1">
          <mxGeometry relative="1" as="geometry">
            <mxPoint x="26.928571428571733" y="933.3333333333333" as="sourcePoint" />
            <mxPoint x="26.928571428571423" y="93.33333333333334" as="targetPoint" />
            <Array as="points">
              <mxPoint y="706.6666666666666" />
              <mxPoint y="93.33333333333334" />
            </Array>
          </mxGeometry>
        </mxCell>
        <mxCell id="7bl8xutbdIY_RmeOV73t-6" value="fd" style="rounded=0;whiteSpace=wrap;html=1;" parent="7bl8xutbdIY_RmeOV73t-33" vertex="1">
          <mxGeometry x="26.928571428571423" y="680" width="323.1428571428571" height="53.33333333333333" as="geometry" />
        </mxCell>
        <mxCell id="7bl8xutbdIY_RmeOV73t-10" style="edgeStyle=orthogonalEdgeStyle;rounded=0;orthogonalLoop=1;jettySize=auto;html=1;exitX=1;exitY=0.5;exitDx=0;exitDy=0;entryX=1;entryY=0;entryDx=0;entryDy=0;" parent="7bl8xutbdIY_RmeOV73t-33" source="7bl8xutbdIY_RmeOV73t-7" target="7bl8xutbdIY_RmeOV73t-28" edge="1">
          <mxGeometry relative="1" as="geometry">
            <mxPoint x="350.0714285714286" y="413.33333333333337" as="targetPoint" />
            <Array as="points">
              <mxPoint x="376.9999999999999" y="760" />
              <mxPoint x="376.9999999999999" y="360.00000000000006" />
            </Array>
          </mxGeometry>
        </mxCell>
        <mxCell id="7bl8xutbdIY_RmeOV73t-7" value="bk" style="rounded=0;whiteSpace=wrap;html=1;" parent="7bl8xutbdIY_RmeOV73t-33" vertex="1">
          <mxGeometry x="26.928571428571423" y="733.3333333333333" width="323.1428571428571" height="53.33333333333333" as="geometry" />
        </mxCell>
        <mxCell id="7bl8xutbdIY_RmeOV73t-18" value="pre size" style="rounded=0;whiteSpace=wrap;html=1;" parent="7bl8xutbdIY_RmeOV73t-33" vertex="1">
          <mxGeometry x="26.928571428571423" y="573.3333333333334" width="323.1428571428571" height="53.33333333333333" as="geometry" />
        </mxCell>
        <mxCell id="7bl8xutbdIY_RmeOV73t-19" value="size" style="rounded=0;whiteSpace=wrap;html=1;" parent="7bl8xutbdIY_RmeOV73t-33" vertex="1">
          <mxGeometry x="26.928571428571423" y="626.6666666666665" width="323.1428571428571" height="53.33333333333333" as="geometry" />
        </mxCell>
        <mxCell id="7bl8xutbdIY_RmeOV73t-17" style="edgeStyle=orthogonalEdgeStyle;rounded=0;orthogonalLoop=1;jettySize=auto;html=1;entryX=0.75;entryY=1;entryDx=0;entryDy=0;" parent="7bl8xutbdIY_RmeOV73t-33" source="7bl8xutbdIY_RmeOV73t-2" target="7bl8xutbdIY_RmeOV73t-6" edge="1">
          <mxGeometry relative="1" as="geometry">
            <Array as="points">
              <mxPoint x="269.2857142857142" y="266.6666666666667" />
              <mxPoint x="269.2857142857142" y="266.6666666666667" />
            </Array>
          </mxGeometry>
        </mxCell>
        <mxCell id="7bl8xutbdIY_RmeOV73t-12" style="edgeStyle=orthogonalEdgeStyle;rounded=0;orthogonalLoop=1;jettySize=auto;html=1;entryX=0.25;entryY=0;entryDx=0;entryDy=0;" parent="7bl8xutbdIY_RmeOV73t-33" source="7bl8xutbdIY_RmeOV73t-1" target="7bl8xutbdIY_RmeOV73t-6" edge="1">
          <mxGeometry relative="1" as="geometry" />
        </mxCell>
        <mxCell id="7bl8xutbdIY_RmeOV73t-29" value="" style="shape=flexArrow;endArrow=classic;html=1;rounded=0;exitX=0.25;exitY=1;exitDx=0;exitDy=0;entryX=0.125;entryY=0;entryDx=0;entryDy=0;entryPerimeter=0;" parent="7bl8xutbdIY_RmeOV73t-33" source="7bl8xutbdIY_RmeOV73t-1" target="7bl8xutbdIY_RmeOV73t-22" edge="1">
          <mxGeometry width="50" height="50" relative="1" as="geometry">
            <mxPoint x="228.89285714285708" y="400.00000000000006" as="sourcePoint" />
            <mxPoint x="296.2142857142856" y="333.3333333333333" as="targetPoint" />
          </mxGeometry>
        </mxCell>
        <mxCell id="7bl8xutbdIY_RmeOV73t-30" value="" style="shape=flexArrow;endArrow=classic;html=1;rounded=0;exitX=0.75;exitY=1;exitDx=0;exitDy=0;entryX=0.886;entryY=-0.033;entryDx=0;entryDy=0;entryPerimeter=0;" parent="7bl8xutbdIY_RmeOV73t-33" source="7bl8xutbdIY_RmeOV73t-2" target="7bl8xutbdIY_RmeOV73t-28" edge="1">
          <mxGeometry width="50" height="50" relative="1" as="geometry">
            <mxPoint x="417.3928571428571" y="173.33333333333337" as="sourcePoint" />
            <mxPoint x="417.3928571428571" y="386.6666666666667" as="targetPoint" />
          </mxGeometry>
        </mxCell>
        <mxCell id="Vnr2WxxwsQG6oXrD13Lc-2" value="fastbin_dup_into_stack" style="text;strokeColor=none;fillColor=none;align=left;verticalAlign=middle;spacingLeft=4;spacingRight=4;overflow=hidden;points=[[0,0.5],[1,0.5]];portConstraint=eastwest;rotatable=0;whiteSpace=wrap;html=1;container=0;" parent="1" vertex="1">
          <mxGeometry x="320" y="-1150" width="140" height="30" as="geometry" />
        </mxCell>
        <mxCell id="Vnr2WxxwsQG6oXrD13Lc-7" value="" style="rounded=0;whiteSpace=wrap;html=1;container=0;" parent="1" vertex="1">
          <mxGeometry x="320" y="-1080" width="160" height="440" as="geometry" />
        </mxCell>
        <mxCell id="Vnr2WxxwsQG6oXrD13Lc-8" value="a" style="rounded=0;whiteSpace=wrap;html=1;container=0;" parent="1" vertex="1">
          <mxGeometry x="320" y="-1080" width="160" height="40" as="geometry" />
        </mxCell>
        <mxCell id="Vnr2WxxwsQG6oXrD13Lc-9" value="c" style="rounded=0;whiteSpace=wrap;html=1;container=0;" parent="1" vertex="1">
          <mxGeometry x="320" y="-1000" width="160" height="40" as="geometry" />
        </mxCell>
        <mxCell id="Vnr2WxxwsQG6oXrD13Lc-10" value="b" style="rounded=0;whiteSpace=wrap;html=1;container=0;" parent="1" vertex="1">
          <mxGeometry x="320" y="-1040" width="160" height="40" as="geometry" />
        </mxCell>
        <mxCell id="Vnr2WxxwsQG6oXrD13Lc-11" value="fast_bin" style="rounded=0;whiteSpace=wrap;html=1;container=0;" parent="1" vertex="1">
          <mxGeometry x="160" y="-1080" width="80" height="40" as="geometry" />
        </mxCell>
        <mxCell id="Vnr2WxxwsQG6oXrD13Lc-12" value="a" style="rounded=0;whiteSpace=wrap;html=1;container=0;" parent="1" vertex="1">
          <mxGeometry x="120" y="-1008" width="160" height="40" as="geometry" />
        </mxCell>
        <mxCell id="Vnr2WxxwsQG6oXrD13Lc-13" style="edgeStyle=orthogonalEdgeStyle;rounded=0;orthogonalLoop=1;jettySize=auto;html=1;entryX=0.5;entryY=0;entryDx=0;entryDy=0;" parent="1" source="Vnr2WxxwsQG6oXrD13Lc-11" target="Vnr2WxxwsQG6oXrD13Lc-12" edge="1">
          <mxGeometry relative="1" as="geometry" />
        </mxCell>
        <mxCell id="Vnr2WxxwsQG6oXrD13Lc-14" value="b" style="rounded=0;whiteSpace=wrap;html=1;container=0;" parent="1" vertex="1">
          <mxGeometry x="120" y="-920" width="160" height="40" as="geometry" />
        </mxCell>
        <mxCell id="Vnr2WxxwsQG6oXrD13Lc-15" style="edgeStyle=orthogonalEdgeStyle;rounded=0;orthogonalLoop=1;jettySize=auto;html=1;" parent="1" source="Vnr2WxxwsQG6oXrD13Lc-12" target="Vnr2WxxwsQG6oXrD13Lc-14" edge="1">
          <mxGeometry relative="1" as="geometry" />
        </mxCell>
        <mxCell id="Vnr2WxxwsQG6oXrD13Lc-16" value="a" style="rounded=0;whiteSpace=wrap;html=1;container=0;" parent="1" vertex="1">
          <mxGeometry x="120" y="-850" width="160" height="40" as="geometry" />
        </mxCell>
        <mxCell id="Vnr2WxxwsQG6oXrD13Lc-17" style="edgeStyle=orthogonalEdgeStyle;rounded=0;orthogonalLoop=1;jettySize=auto;html=1;" parent="1" source="Vnr2WxxwsQG6oXrD13Lc-14" target="Vnr2WxxwsQG6oXrD13Lc-16" edge="1">
          <mxGeometry relative="1" as="geometry" />
        </mxCell>
        <mxCell id="Vnr2WxxwsQG6oXrD13Lc-18" value="" style="endArrow=classic;html=1;rounded=0;entryX=1;entryY=0;entryDx=0;entryDy=0;" parent="1" edge="1">
          <mxGeometry width="50" height="50" relative="1" as="geometry">
            <mxPoint x="760" y="-1080" as="sourcePoint" />
            <mxPoint x="680" y="-1080" as="targetPoint" />
          </mxGeometry>
        </mxCell>
        <mxCell id="Vnr2WxxwsQG6oXrD13Lc-19" value="" style="endArrow=classic;html=1;rounded=0;entryX=1;entryY=0;entryDx=0;entryDy=0;" parent="1" edge="1">
          <mxGeometry width="50" height="50" relative="1" as="geometry">
            <mxPoint x="760" y="-1070" as="sourcePoint" />
            <mxPoint x="680" y="-1070" as="targetPoint" />
          </mxGeometry>
        </mxCell>
        <mxCell id="Vnr2WxxwsQG6oXrD13Lc-20" value="a" style="text;html=1;strokeColor=none;fillColor=none;align=center;verticalAlign=middle;whiteSpace=wrap;rounded=0;container=0;" parent="1" vertex="1">
          <mxGeometry x="760" y="-1100" width="60" height="30" as="geometry" />
        </mxCell>
        <mxCell id="Vnr2WxxwsQG6oXrD13Lc-21" value="d" style="text;html=1;strokeColor=none;fillColor=none;align=center;verticalAlign=middle;whiteSpace=wrap;rounded=0;container=0;" parent="1" vertex="1">
          <mxGeometry x="760" y="-1080" width="60" height="30" as="geometry" />
        </mxCell>
        <mxCell id="Vnr2WxxwsQG6oXrD13Lc-22" value="" style="rounded=0;whiteSpace=wrap;html=1;container=0;" parent="1" vertex="1">
          <mxGeometry x="520" y="-1080" width="160" height="440" as="geometry" />
        </mxCell>
        <mxCell id="Vnr2WxxwsQG6oXrD13Lc-23" value="" style="rounded=0;whiteSpace=wrap;html=1;container=0;" parent="1" vertex="1">
          <mxGeometry x="520" y="-1080" width="160" height="40" as="geometry" />
        </mxCell>
        <mxCell id="Vnr2WxxwsQG6oXrD13Lc-24" value="c" style="rounded=0;whiteSpace=wrap;html=1;container=0;" parent="1" vertex="1">
          <mxGeometry x="520" y="-1000" width="160" height="40" as="geometry" />
        </mxCell>
        <mxCell id="Vnr2WxxwsQG6oXrD13Lc-25" value="" style="rounded=0;whiteSpace=wrap;html=1;container=0;" parent="1" vertex="1">
          <mxGeometry x="520" y="-1040" width="160" height="40" as="geometry" />
        </mxCell>
        <mxCell id="Vnr2WxxwsQG6oXrD13Lc-27" value="free" style="text;html=1;strokeColor=none;fillColor=none;align=center;verticalAlign=middle;whiteSpace=wrap;rounded=0;container=0;" parent="1" vertex="1">
          <mxGeometry x="759.9965217391305" y="-1150" width="60" height="30" as="geometry" />
        </mxCell>
        <mxCell id="Vnr2WxxwsQG6oXrD13Lc-26" style="edgeStyle=orthogonalEdgeStyle;rounded=0;orthogonalLoop=1;jettySize=auto;html=1;exitX=0.5;exitY=0;exitDx=0;exitDy=0;" parent="1" source="Vnr2WxxwsQG6oXrD13Lc-20" target="Vnr2WxxwsQG6oXrD13Lc-27" edge="1">
          <mxGeometry relative="1" as="geometry">
            <mxPoint x="789.9565217391305" y="-1120" as="targetPoint" />
          </mxGeometry>
        </mxCell>
        <mxCell id="Vnr2WxxwsQG6oXrD13Lc-29" value="malloc&lt;br&gt;stack_addr" style="text;html=1;strokeColor=none;fillColor=none;align=center;verticalAlign=middle;whiteSpace=wrap;rounded=0;container=0;" parent="1" vertex="1">
          <mxGeometry x="760" y="-1030" width="60" height="30" as="geometry" />
        </mxCell>
        <mxCell id="Vnr2WxxwsQG6oXrD13Lc-28" style="edgeStyle=orthogonalEdgeStyle;rounded=0;orthogonalLoop=1;jettySize=auto;html=1;" parent="1" source="Vnr2WxxwsQG6oXrD13Lc-21" target="Vnr2WxxwsQG6oXrD13Lc-29" edge="1">
          <mxGeometry relative="1" as="geometry">
            <mxPoint x="790" y="-1020" as="targetPoint" />
          </mxGeometry>
        </mxCell>
        <mxCell id="2ChEE_B9adLZoxHIVyTo-2" value="house_of_force" style="text;html=1;align=center;verticalAlign=middle;whiteSpace=wrap;rounded=0;" parent="1" vertex="1">
          <mxGeometry x="440" y="410" width="60" height="30" as="geometry" />
        </mxCell>
        <mxCell id="2ChEE_B9adLZoxHIVyTo-3" value="" style="rounded=0;whiteSpace=wrap;html=1;" parent="1" vertex="1">
          <mxGeometry x="144" y="468" width="324" height="972" as="geometry" />
        </mxCell>
        <mxCell id="2ChEE_B9adLZoxHIVyTo-4" value="" style="rounded=0;whiteSpace=wrap;html=1;" parent="1" vertex="1">
          <mxGeometry x="144" y="828" width="324" height="396" as="geometry" />
        </mxCell>
        <mxCell id="2ChEE_B9adLZoxHIVyTo-5" value="chunk1" style="rounded=0;whiteSpace=wrap;html=1;" parent="1" vertex="1">
          <mxGeometry x="144" y="1188" width="324" height="36" as="geometry" />
        </mxCell>
        <mxCell id="2ChEE_B9adLZoxHIVyTo-6" value="chunk2" style="rounded=0;whiteSpace=wrap;html=1;" parent="1" vertex="1">
          <mxGeometry x="144" y="1152" width="324" height="36" as="geometry" />
        </mxCell>
        <mxCell id="2ChEE_B9adLZoxHIVyTo-7" value="top chunk" style="rounded=0;whiteSpace=wrap;html=1;" parent="1" vertex="1">
          <mxGeometry x="144" y="828" width="324" height="324" as="geometry" />
        </mxCell>
        <mxCell id="2ChEE_B9adLZoxHIVyTo-8" value="prev size" style="rounded=0;whiteSpace=wrap;html=1;" parent="1" vertex="1">
          <mxGeometry x="144" y="1116" width="324" height="36" as="geometry" />
        </mxCell>
        <mxCell id="2ChEE_B9adLZoxHIVyTo-9" value="size(0xffffffff)" style="rounded=0;whiteSpace=wrap;html=1;" parent="1" vertex="1">
          <mxGeometry x="144" y="1080" width="324" height="36" as="geometry" />
        </mxCell>
        <mxCell id="2ChEE_B9adLZoxHIVyTo-10" value="stack" style="rounded=0;whiteSpace=wrap;html=1;" parent="1" vertex="1">
          <mxGeometry x="144" y="504" width="324" height="144" as="geometry" />
        </mxCell>
        <mxCell id="2ChEE_B9adLZoxHIVyTo-13" value="chunk2 overflow" style="shape=delay;whiteSpace=wrap;html=1;" parent="1" vertex="1">
          <mxGeometry x="468" y="1080" width="216" height="108" as="geometry" />
        </mxCell>
        <mxCell id="2ChEE_B9adLZoxHIVyTo-15" value="malloc()" style="shape=delay;whiteSpace=wrap;html=1;" parent="1" vertex="1">
          <mxGeometry x="468" y="540" width="216" height="72" as="geometry" />
        </mxCell>
        <mxCell id="2ChEE_B9adLZoxHIVyTo-16" value="data" style="rounded=0;whiteSpace=wrap;html=1;" parent="1" vertex="1">
          <mxGeometry x="144" y="1224" width="324" height="144" as="geometry" />
        </mxCell>
        <mxCell id="2ChEE_B9adLZoxHIVyTo-18" value="malloc()" style="shape=delay;whiteSpace=wrap;html=1;" parent="1" vertex="1">
          <mxGeometry x="468" y="1296" width="144" height="72" as="geometry" />
        </mxCell>
        <mxCell id="2ChEE_B9adLZoxHIVyTo-19" value="" style="rounded=0;whiteSpace=wrap;html=1;" parent="1" vertex="1">
          <mxGeometry x="144" y="585" width="324" height="27" as="geometry" />
        </mxCell>
        <mxCell id="OaaaISYqMKOk3XpiIz3m-1" value="" style="rounded=0;whiteSpace=wrap;html=1;" vertex="1" parent="1">
          <mxGeometry x="252" y="1548" width="216" height="324" as="geometry" />
        </mxCell>
        <mxCell id="OaaaISYqMKOk3XpiIz3m-2" value="o" style="text;html=1;align=center;verticalAlign=middle;whiteSpace=wrap;rounded=0;" vertex="1" parent="1">
          <mxGeometry x="330" y="1518" width="60" height="30" as="geometry" />
        </mxCell>
        <mxCell id="OaaaISYqMKOk3XpiIz3m-3" value="v7" style="rounded=0;whiteSpace=wrap;html=1;" vertex="1" parent="1">
          <mxGeometry x="252" y="1620" width="216" height="36" as="geometry" />
        </mxCell>
        <mxCell id="OaaaISYqMKOk3XpiIz3m-4" value="v9" style="rounded=0;whiteSpace=wrap;html=1;" vertex="1" parent="1">
          <mxGeometry x="252" y="1692" width="216" height="36" as="geometry" />
        </mxCell>
        <mxCell id="OaaaISYqMKOk3XpiIz3m-5" value="v8" style="rounded=0;whiteSpace=wrap;html=1;" vertex="1" parent="1">
          <mxGeometry x="252" y="1656" width="216" height="36" as="geometry" />
        </mxCell>
        <mxCell id="OaaaISYqMKOk3XpiIz3m-6" value="byebye" style="rounded=0;whiteSpace=wrap;html=1;" vertex="1" parent="1">
          <mxGeometry x="252" y="1764" width="216" height="36" as="geometry" />
        </mxCell>
        <mxCell id="OaaaISYqMKOk3XpiIz3m-7" value="greeting" style="rounded=0;whiteSpace=wrap;html=1;" vertex="1" parent="1">
          <mxGeometry x="252" y="1728" width="216" height="36" as="geometry" />
        </mxCell>
        <mxCell id="OaaaISYqMKOk3XpiIz3m-9" value="" style="endArrow=classic;html=1;rounded=0;entryX=1;entryY=1;entryDx=0;entryDy=0;" edge="1" parent="1">
          <mxGeometry width="50" height="50" relative="1" as="geometry">
            <mxPoint x="540" y="1620" as="sourcePoint" />
            <mxPoint x="468" y="1620" as="targetPoint" />
          </mxGeometry>
        </mxCell>
        <mxCell id="OaaaISYqMKOk3XpiIz3m-10" value="" style="rounded=0;whiteSpace=wrap;html=1;" vertex="1" parent="1">
          <mxGeometry x="252" y="1584" width="216" height="36" as="geometry" />
        </mxCell>
        <mxCell id="OaaaISYqMKOk3XpiIz3m-11" value="" style="rounded=0;whiteSpace=wrap;html=1;" vertex="1" parent="1">
          <mxGeometry x="252" y="1548" width="216" height="36" as="geometry" />
        </mxCell>
      </root>
    </mxGraphModel>
  </diagram>
</mxfile>
